Coordinates
version=1
nRows=10
nColumns=40
inDegrees=yes

Units are S.I. units (second, meters, Newtons, ...)
Angles are in degrees.

endheader
time	pelvis_tilt	pelvis_list	pelvis_rotation	pelvis_tx	pelvis_ty	pelvis_tz	hip_flexion_r	hip_adduction_r	hip_rotation_r	knee_angle_r	knee_angle_r_beta	ankle_angle_r	subtalar_angle_r	mtp_angle_r	hip_flexion_l	hip_adduction_l	hip_rotation_l	knee_angle_l	knee_angle_l_beta	ankle_angle_l	subtalar_angle_l	mtp_angle_l	lumbar_extension	lumbar_bending	lumbar_rotation	arm_flex_r	arm_add_r	arm_rot_r	elbow_flex_r	pro_sup_r	wrist_flex_r	wrist_dev_r	arm_flex_l	arm_add_l	arm_rot_l	elbow_flex_l	pro_sup_l	wrist_flex_l	wrist_dev_l
     50.01000000	     -4.63664428	     -6.14620708	     -3.78299752	      0.89889334	      0.91940398	      0.39800370	     24.57339400	     -4.60355281	     -5.66936858	     58.78061725	     58.78061725	      7.11848468	    -17.09907319	      5.39949045	     15.55690844	     -4.10308550	     -6.53794043	     30.93431707	     30.93431707	     21.95438639	    -17.49184417	      9.53290868	    -12.09331639	      8.36789327	      2.73039796	      1.13284649	    -11.71045887	    -20.20197262	     19.08436411	     46.94561733	      0.00000000	      0.00000000	     21.87698623	    -16.87384031	      8.56368732	     49.98483875	     46.16746940	      0.00000000	      0.00000000
     50.03000000	     -4.81626889	     -6.35502630	     -4.72502342	      0.89669272	      0.92088092	      0.39888320	     25.68413325	     -3.89473156	     -5.42960487	     56.81922950	     56.81922950	      7.13304222	    -16.66770157	      3.88448742	     14.87004893	     -4.46736603	     -7.32090657	     30.08280546	     30.08280546	     21.80517187	    -17.46370968	      9.42174364	    -12.21736453	      8.61946213	      2.42544394	     -1.49852935	    -11.35518706	    -19.83578891	     20.08991285	     46.87574220	      0.00000000	      0.00000000	     22.63241051	    -17.34597039	      6.17514309	     52.64402459	     46.44488643	      0.00000000	      0.00000000
     50.05000000	     -5.02402227	     -6.55273669	     -5.70162352	      0.89449598	      0.92265907	      0.40010729	     26.59350014	     -3.17296385	     -5.21274883	     54.12991230	     54.12991230	      6.85540599	    -15.98081840	      1.75532635	     14.07094494	     -4.80910109	     -8.14944083	     28.98203770	     28.98203770	     21.55433779	    -17.41578396	      9.32823256	    -12.29100723	      8.83817530	      2.18037700	     -3.76905615	    -11.16822993	    -19.24410995	     20.58888195	     46.81747357	      0.00000000	      0.00000000	     23.54204034	    -17.84689802	      4.22441709	     54.84128152	     46.67266896	      0.00000000	      0.00000000
     50.07000000	     -5.30945756	     -6.76708583	     -6.69661826	      0.89226423	      0.92451371	      0.40163089	     27.40841113	     -2.41019694	     -5.03363934	     50.92141300	     50.92141300	      7.05807285	    -14.58307711	      1.51878001	     13.29256311	     -5.16479312	     -8.99180606	     27.79063313	     27.79063313	     21.40079392	    -17.29105932	      9.59005109	    -12.21702203	      9.10178431	      2.04322961	     -5.50877972	    -11.11846266	    -19.23238199	     20.16156915	     46.82383510	      0.00000000	      0.00000000	     24.86836478	    -18.53353300	      3.62187006	     55.92851957	     46.74908404	      0.00000000	      0.00000000
     50.09000000	     -5.56671771	     -6.97869472	     -7.71167618	      0.89010689	      0.92633132	      0.40345994	     27.94128971	     -1.69518542	     -5.01653793	     47.13455449	     47.13455449	      7.05828543	    -12.69259193	      1.00117809	     12.38640792	     -5.51037981	     -9.87567811	     26.45712747	     26.45712747	     21.19875660	    -17.12192191	      9.76981839	    -12.20365425	      9.31387197	      2.10284130	     -7.21929777	    -11.13184028	    -19.28778611	     20.08106033	     46.82076119	      0.00000000	      0.00000000	     26.11475564	    -19.08574551	      2.78354699	     57.50703058	     46.85032909	      0.00000000	      0.00000000
     50.11000000	     -5.85059694	     -7.13637024	     -8.71585522	      0.88794858	      0.92793413	      0.40546493	     28.20223795	     -1.07006962	     -5.19157093	     42.75063931	     42.75063931	      6.78323840	    -10.30811535	      0.24823279	     11.49208830	     -5.78705711	    -10.81746867	     25.08670575	     25.08670575	     20.96001866	    -16.92332178	      9.78639086	    -12.21471956	      9.44525761	      2.16171593	     -8.81669387	    -11.19349209	    -19.41490088	     20.41879458	     46.80598539	      0.00000000	      0.00000000	     27.23217573	    -19.65362474	      1.68920302	     59.41481303	     46.97429016	      0.00000000	      0.00000000
     50.13000000	     -6.19268267	     -7.18296740	     -9.71947574	      0.88590328	      0.92893571	      0.40772132	     28.12846465	     -0.52412470	     -5.55236218	     37.55657320	     37.55657320	      4.69984300	     -8.25381616	     -4.82345840	     10.62630820	     -5.95979811	    -11.85995119	     23.63357598	     23.63357598	     20.19936007	    -16.80664353	      8.32427037	    -12.21867809	      9.45985570	      1.51788804	    -10.72925847	    -11.21358703	    -19.60122330	     23.71536162	     46.67083241	      0.00000000	      0.00000000	     26.90266315	    -20.30487885	     -2.14276013	     63.90989806	     47.34432871	      0.00000000	      0.00000000
     50.15000000	     -6.47946314	     -7.21475278	    -10.65775302	      0.88409239	      0.92970869	      0.41010529	     27.77017966	      0.01651169	     -6.15832639	     32.21894423	     32.21894423	      3.51102048	     -5.19207981	     -6.33986751	      9.72124060	     -6.07400815	    -12.81112754	     22.24918740	     22.24918740	     19.78181554	    -16.61385899	      7.60368452	    -12.11688961	      9.48018567	      1.47672988	    -11.87572460	    -11.40434258	    -18.99389740	     24.29532528	     46.60317407	      0.00000000	      0.00000000	     27.90979452	    -20.82813248	     -3.38896496	     65.64818727	     47.48182288	      0.00000000	      0.00000000
     50.17000000	     -6.72568398	     -7.14347573	    -11.53079510	      0.88250549	      0.92997330	      0.41266174	     27.23679267	      0.46468205	     -7.04349433	     26.96613049	     26.96613049	      2.82220259	     -1.34861373	     -5.60841535	      8.86731328	     -6.07517159	    -13.75067357	     21.05754391	     21.05754391	     19.70783154	    -16.26164749	      7.38405181	    -11.99419380	      9.38506205	      1.59829714	    -12.76987095	    -11.50244136	    -18.98624962	     24.60060774	     46.58549193	      0.00000000	      0.00000000	     29.10802888	    -21.32237041	     -4.05316929	     67.07856967	     47.56228877	      0.00000000	      0.00000000
     50.19000000	     -7.00472659	     -7.04362160	    -12.29935895	      0.88117321	      0.92963016	      0.41544872	     26.54889404	      1.07281917	     -7.73256587	     21.74927466	     21.74927466	      1.91447647	      1.80058873	     -4.30852677	      8.18022318	     -6.06854452	    -14.55308974	     20.11950364	     20.11950364	     19.74516505	    -15.98737292	      7.16984935	    -11.72959909	      9.29881778	      1.61625442	    -13.37909219	    -11.56001748	    -19.03871132	     24.84391730	     46.57470400	      0.00000000	      0.00000000	     30.22719448	    -21.82954649	     -4.55292452	     68.14002102	     47.62239659	      0.00000000	      0.00000000
